<?xml version="1.0" encoding="utf-8"?>
<!-- Generator: Adobe Illustrator 25.0.1, SVG Export Plug-In . SVG Version: 6.00 Build 0)  -->
<svg version="1.1" id="Layer_1" xmlns="http://www.w3.org/2000/svg" xmlns:xlink="http://www.w3.org/1999/xlink" x="0px" y="0px"
	 viewBox="0 0 960 560" style="enable-background:new 0 0 960 560;" xml:space="preserve">
<style type="text/css">
	.st0{fill:#F6A5A2;}
	.st1{fill:#775144;}
</style>
<g>
	<g>
		<path class="st0" d="M490.7,292.4c21.2,11.9,48.8-5.9,48.8-33.6c0-14.5-7.9-33-35.6-33c-32,0-48.8,24.1-48.8,41.7
			c0,8.6,4.1,16.5,4.1,16.5l-19,14.2c0,0-8.8-13.5-8.8-30.3c0-25.9,20.6-64.3,72.5-64.3c44.2,0,62.8,28,62.8,55.1
			c0,37.4-35.2,71.8-83.5,51.9L463.9,359h-28.6l40-99.5c5-12.4,17.6-26,35.6-26l5.2,15.4c0,0-9.2,3.8-14.5,16.7L490.7,292.4z
			 M537.6,349.5c8.3-7.9,24.6-33.2,41.8-71.5c-3.2-3.4-5.6-6.5-5.6-11c0-9.2,9.5-18.9,16.9-21.2l11.7,6.5l-5.7,14.4
			c7.4,6.5,29.5,16.5,29.5,30c0,2.2-0.5,4.8-2.2,9l-5,12.7c-8.4,20.7-3.8,23-1.4,23c5,0,13.8-11.3,27.5-34.7
			c3.8,0.4,8.6,3.8,10.1,7.2c-13.8,23.9-28.2,45.1-47.9,45.1c-14,0-28.9-10.4-16-42.2l5.7-14.5c1.4-3.6,1.6-5.4,1.6-6.3
			c0-3.6-3.8-6.6-8.8-11c-15.4,33.8-32.9,63.4-42.2,71.6C543.7,356.3,539,352.9,537.6,349.5z"/>
		<path class="st0" d="M709,314c-13.8,24.2-31.8,45.1-52.4,45.1c-16.3,0-27.8-12.9-14.7-45.4l20.3-50.1h28.6l-22.1,54.9
			c-8.3,20.5-5,23-2,23c7.2,0,19.6-12.6,32.3-34.7C702.8,307.1,707.6,310.6,709,314z M669.9,240.2c0-8.8,7-15.6,15.8-15.6
			c8.4,0,15.8,6.8,15.8,15.6c0,8.4-7.4,15.8-15.8,15.8C676.9,256,669.9,248.6,669.9,240.2z"/>
		<path class="st0" d="M814.1,314c-14.4,25-31.6,45.1-53.2,45.1c-18.7,0-26.4-14.4-13.6-46.1l2.7-6.6c3.4-8.6,6.3-15.4,6.3-18.1
			c0-2.5-2.2-4-4.8-4c-4.3,0-12.6,4.1-20.1,12.7l-24.2,59.8h-28.6l37.7-93.2L741,273c0.9-0.9,14.2-11.9,29.5-11.9
			c11.3,0,17.2,6.1,17.2,15.6c0,4.8-1.6,11-5.4,20.3l-8.8,21.4c-8.3,20.7-4.8,23-1.8,23c7.2,0,19.6-12.6,32.3-34.7
			C807.8,307.1,812.7,310.6,814.1,314z"/>
		<path class="st0" d="M871.2,314C857.9,337.3,839.6,359,817,359c-17.8,0-28.9-13.3-16-45.4l20.3-50.1h-14.9l5.9-14.4H827l8.6-21.2
			h28.6l-8.6,21.2h14.4l-5.9,14.4h-14.2l-22.1,54.9c-8.4,20.5-4.5,23-0.5,23c8.8,0,21-12.7,33.9-34.7
			C864.9,307.1,869.8,310.6,871.2,314z"/>
		<path class="st0" d="M861.1,306.8c7.2-12.2,18.9-34.5,25.7-49.6l24.8,6.3c-4.7,25.3-0.9,53.5-0.7,64.8c0,5-0.4,7.5-0.9,9.7
			c9.5-7.5,16.9-17.2,25-31.2c3.8,0.4,8.6,3.8,10.1,7.2c-13.1,23.5-30.7,45.1-60.9,45.1c-22.3,0-30.2-12-30.3-12.2l15.8-9.9
			c1.6,1.8,3.1,2.5,5.6,2.5c5.7,0,9.3-4.8,9.3-22.3c0-7.9-0.7-19-0.4-28c-4.7,9.2-9.3,18.5-12.9,24.8
			C867.4,313.6,862.6,310.2,861.1,306.8z"/>
	</g>
	<g>
		<g>
			<g>
				<g>
					<g>
						<g>
							<path class="st1" d="M194,173.9c-0.5-6.9-3.7-12.6-8.7-15.5c-5-2.9-11.5-2.9-17.8,0.1c-5.7,2.8-10.9,7.8-14.6,14.1
								c-3.7,6.3-5.4,13.3-5,19.7c0.5,6.9,3.7,12.6,8.7,15.5c5,2.9,11.5,2.9,17.8-0.1c5.7-2.8,10.9-7.8,14.6-14.1
								C192.6,187.3,194.4,180.3,194,173.9z"/>
						</g>
					</g>
					<g>
						<g>
							<path class="st1" d="M153,150.1c-0.5-6.9-3.7-12.6-8.7-15.5c-5-2.9-11.5-2.9-17.8,0.1c-5.7,2.8-10.9,7.8-14.6,14.1
								c-3.7,6.3-5.4,13.3-5,19.7c0.5,6.9,3.7,12.6,8.7,15.5c5,2.9,11.5,2.9,17.8-0.1c5.7-2.8,10.9-7.8,14.6-14.1
								C151.7,163.5,153.4,156.5,153,150.1z"/>
						</g>
					</g>
					<g>
						<g>
							<path class="st1" d="M205.4,232.4c1.3-5.4,0.4-10.5-2.7-14.2c-2.5-3-6.2-4.9-10.4-5.3c-5.8-0.5-12.1,1.7-17.3,6.2
								c-4.2,3.6-7.2,8.3-8.4,13.2c-1.3,5.4-0.4,10.5,2.7,14.2c1.1,1.3,2.4,2.4,3.8,3.2c1.9,1.1,4.2,1.8,6.6,2
								c5.8,0.5,12.1-1.7,17.3-6.2l0,0C201.2,242,204.2,237.3,205.4,232.4z"/>
						</g>
					</g>
					<g>
						<g>
							<path class="st1" d="M96.7,173.6c1.3-6.7,0.1-13.3-3.2-18.1c-2.4-3.5-5.9-5.8-9.7-6.4c-4.8-0.8-9.7,0.9-13.7,4.7
								c-3.7,3.5-6.3,8.4-7.3,13.9l0,0c-1.3,6.7-0.1,13.3,3.2,18.1c1.4,2,3.1,3.6,5,4.7c1.5,0.8,3,1.4,4.7,1.7
								c4.8,0.8,9.7-0.9,13.7-4.7C93,184,95.6,179.1,96.7,173.6z"/>
						</g>
					</g>
				</g>
				<g>
					<path class="st1" d="M82.7,294.3c22.1,12.3,50.9-6.2,50.9-35c0-15.1-8.2-34.4-37-34.4c-33.3,0-50.9,25.1-50.9,43.4
						c0,9,4.3,17.2,4.3,17.2l-19.8,14.8c0,0-9.2-14-9.2-31.6c0-26.9,21.5-67,75.6-67c46,0,65.5,29.2,65.5,57.4
						c0,38.9-36.7,74.8-87,54.1l-20.2,50.5H25.1l41.7-103.6c5.2-12.9,18.3-27.1,37-27.1l5.4,16.1c0,0-9.5,3.9-15.1,17.4L82.7,294.3z
						"/>
					<path class="st1" d="M279.4,316.8c-14.6,25.4-32.7,46.9-55.5,46.9c-19.5,0-21.9-15.5-21.9-15.5s-12.9,15.5-29.4,15.5
						c-14,0-21.1-11-21.1-24.5c0-20,15.9-77.4,51.6-77.4c18.1,0,22.3,15.1,22.3,15.1l35-12.7l-23.2,57.2
						c-8.4,21.1-5.2,23.9-1.9,23.9c7.5,0,20.2-13.1,33.7-36.1C272.8,309.7,277.9,313.2,279.4,316.8z M205.3,326.5l12.2-29.9
						c0,0-0.2-10.5-8.4-10.5c-14.8,0-28.6,35-28.6,46.9c0,4.9,2.2,6.9,6,6.9C196.7,340,205.3,326.5,205.3,326.5z"/>
					<path class="st1" d="M432.3,316.8c-11.8,20.4-32.5,33.7-55.7,26.6c-13.1,14-27.7,20.4-41.7,20.4c-13.1,0-21.5-5.4-23.4-16.8
						c-8.6,9.9-18.5,16.8-30.5,16.8c-16.6,0-29.2-12.9-15.3-47.3l21.1-52.2h29.7l-23,57.2c-7.7,18.9-4.9,21.3-1.3,21.3
						c7.3,0,14.6-9.9,26-29.2l19.8-49.4h29.7l-23.2,57.2c-7.3,18.5-5.4,21.3-1.5,21.3c3.6,0,9-2.6,15.3-9.5
						c-1.5-2.4-2.4-5.4-2.4-8.6c0-9.4,8-16.3,17.6-14.8c5.2-11.4,10.5-26.2,14.8-45.6l25.4-2.4c-6.4,29.7-15.7,52.6-27.1,68.8
						c12,2.6,25.1-4.1,35.2-21.3C425.8,309.7,430.9,313.2,432.3,316.8z"/>
				</g>
			</g>
		</g>
		<g>
			<polygon class="st0" points="449.1,199.1 449.1,153.9 549.7,153.9 549.7,199.1 563.1,199.1 563.1,140.5 435.7,140.5 435.7,199.1 
							"/>
		</g>
		<g>
			<polygon class="st0" points="549.7,368.4 549.7,413.6 449.1,413.6 449.1,368.4 435.7,368.4 435.7,427 563.1,427 563.1,368.4 			
				"/>
		</g>
	</g>
</g>
</svg>
