<?xml version="1.0" encoding="utf-8"?>
<!-- Generator: Adobe Illustrator 25.0.1, SVG Export Plug-In . SVG Version: 6.00 Build 0)  -->
<svg version="1.1" id="Layer_1" xmlns="http://www.w3.org/2000/svg" xmlns:xlink="http://www.w3.org/1999/xlink" x="0px" y="0px"
	 viewBox="0 0 960 560" style="enable-background:new 0 0 960 560;" xml:space="preserve">
<style type="text/css">
	.st0{fill:#775144;}
	.st1{fill:#F6A5A2;}
	.st2{fill:#FFC7C0;}
</style>
<g>
	<g>
		<g>
			<g>
				<g>
					<g>
						<g>
							<path class="st0" d="M423.2,96.6c-0.5-6.9-3.6-12.6-8.5-15.5c-4.9-2.9-11.3-2.9-17.4,0.1c-5.6,2.8-10.7,7.8-14.3,14.1
								c-3.6,6.3-5.3,13.3-4.9,19.7c0.5,6.9,3.6,12.6,8.5,15.5c4.9,2.9,11.3,2.9,17.4-0.1c5.6-2.8,10.7-7.8,14.3-14.1
								C421.9,110,423.7,103,423.2,96.6z"/>
						</g>
					</g>
					<g>
						<g>
							<path class="st0" d="M383,72.7c-0.5-6.9-3.6-12.6-8.5-15.5c-4.9-2.9-11.3-2.9-17.4,0.1c-5.6,2.8-10.7,7.8-14.3,14.1
								c-3.6,6.3-5.3,13.3-4.9,19.7c0.5,6.9,3.6,12.6,8.5,15.5s11.3,2.9,17.4-0.1c5.6-2.8,10.7-7.8,14.3-14.1
								C381.7,86.1,383.5,79.1,383,72.7z"/>
						</g>
					</g>
					<g>
						<g>
							<path class="st0" d="M434.4,155.2c1.3-5.4,0.4-10.5-2.7-14.2c-2.4-3-6-4.9-10.2-5.3c-5.7-0.5-11.9,1.7-17,6.2
								c-4.1,3.6-7.1,8.3-8.3,13.2c-1.3,5.4-0.4,10.5,2.7,14.2c1,1.3,2.3,2.4,3.7,3.2c1.9,1.1,4.1,1.8,6.4,2
								c5.7,0.5,11.9-1.7,17-6.2l0,0C430.3,164.8,433.2,160.1,434.4,155.2z"/>
						</g>
					</g>
					<g>
						<g>
							<path class="st0" d="M327.8,96.3c1.3-6.7,0.1-13.3-3.2-18.1c-2.4-3.5-5.8-5.8-9.5-6.4c-4.7-0.8-9.5,0.9-13.4,4.7
								c-3.6,3.5-6.1,8.4-7.2,13.9l0,0c-1.3,6.7-0.1,13.3,3.2,18.1c1.4,2,3,3.6,4.9,4.7c1.4,0.8,3,1.4,4.6,1.7
								c4.7,0.8,9.5-0.9,13.4-4.7C324.2,106.7,326.8,101.7,327.8,96.3z"/>
						</g>
					</g>
				</g>
				<g>
					<path class="st0" d="M314.1,217.2c21.6,12.4,49.9-6.2,49.9-35c0-15.2-8.1-34.5-36.3-34.5c-32.6,0-49.9,25.1-49.9,43.5
						c0,9,4.2,17.2,4.2,17.2l-19.4,14.8c0,0-9-14-9-31.7c0-27,21.1-67.1,74.1-67.1c45.1,0,64.2,29.2,64.2,57.5
						c0,39-35.9,74.9-85.3,54.1l-19.8,50.6h-29.1l40.9-103.8c5.1-12.9,18-27.2,36.3-27.2l5.3,16.1c0,0-9.4,3.9-14.8,17.4
						L314.1,217.2z"/>
					<path class="st0" d="M507,239.7c-14.3,25.5-32.1,47-54.5,47c-19.1,0-21.5-15.6-21.5-15.6s-12.7,15.6-28.8,15.6
						c-13.8,0-20.7-11.1-20.7-24.5c0-20,15.6-77.6,50.6-77.6c17.8,0,21.8,15.2,21.8,15.2l34.3-12.7l-22.7,57.3
						c-8.2,21.2-5.1,24-1.8,24c7.3,0,19.8-13.1,33-36.2C500.5,232.5,505.5,236.1,507,239.7z M434.3,249.4l11.9-30
						c0,0-0.2-10.5-8.3-10.5c-14.5,0-28.1,35-28.1,47c0,4.9,2.2,6.9,5.9,6.9C425.9,262.9,434.3,249.4,434.3,249.4z"/>
					<path class="st0" d="M656.9,239.7c-11.6,20.4-31.9,33.7-54.6,26.6c-12.8,14.1-27.1,20.4-40.9,20.4c-12.8,0-21.1-5.4-22.9-16.9
						c-8.4,9.9-18.2,16.9-29.9,16.9c-16.3,0-28.6-12.9-15-47.4l20.7-52.3h29.2l-22.6,57.3c-7.5,18.9-4.8,21.4-1.3,21.4
						c7.2,0,14.3-9.9,25.5-29.2l19.4-49.5h29.1l-22.7,57.3c-7.2,18.5-5.3,21.4-1.5,21.4c3.5,0,8.8-2.6,15-9.6
						c-1.5-2.4-2.4-5.4-2.4-8.6c0-9.4,7.9-16.3,17.2-14.8c5.1-11.4,10.3-26.2,14.5-45.7l24.9-2.4c-6.2,29.8-15.4,52.6-26.6,68.9
						c11.7,2.6,24.6-4.1,34.5-21.4C650.5,232.5,655.4,236.1,656.9,239.7z"/>
				</g>
			</g>
		</g>
	</g>
	<g>
		<path class="st1" d="M311.7,389.1c20.8,11.9,47.9-5.9,47.9-33.6c0-14.6-7.7-33.1-34.9-33.1c-31.3,0-47.9,24.1-47.9,41.7
			c0,8.6,4,16.5,4,16.5l-18.7,14.2c0,0-8.6-13.5-8.6-30.4c0-25.9,20.2-64.4,71.1-64.4c43.3,0,61.6,28.1,61.6,55.2
			c0,37.4-34.5,71.9-81.9,52l-19,48.6h-28l39.3-99.6c4.9-12.4,17.3-26.1,34.9-26.1l5.1,15.5c0,0-9,3.8-14.3,16.7L311.7,389.1z
			 M357.6,446.3c8.1-7.9,24.1-33.3,41-71.6c-3.2-3.4-5.5-6.5-5.5-11c0-9.2,9.3-18.9,16.5-21.2l11.4,6.5l-5.6,14.4
			c7.2,6.5,28.9,16.5,28.9,30c0,2.2-0.5,4.9-2.1,9l-4.9,12.8c-8.3,20.7-3.7,23-1.4,23c4.9,0,13.6-11.3,26.9-34.7
			c3.7,0.4,8.5,3.8,9.9,7.2c-13.6,23.9-27.6,45.1-47,45.1c-13.7,0-28.3-10.4-15.7-42.3l5.6-14.6c1.4-3.6,1.6-5.4,1.6-6.3
			c0-3.6-3.7-6.7-8.6-11c-15.1,33.8-32.2,63.5-41.4,71.8C363.6,453.2,359,449.7,357.6,446.3z"/>
		<path class="st1" d="M525.7,410.7c-13.6,24.3-31.2,45.1-51.4,45.1c-16,0-27.3-13-14.4-45.5l19.9-50.2h28l-21.7,55
			c-8.1,20.5-4.9,23-1.9,23c7,0,19.2-12.6,31.7-34.7C519.6,403.9,524.3,407.3,525.7,410.7z M487.4,336.8c0-8.8,6.9-15.6,15.5-15.6
			c8.3,0,15.5,6.8,15.5,15.6c0,8.5-7.2,15.8-15.5,15.8C494.2,352.6,487.4,345.2,487.4,336.8z"/>
		<path class="st1" d="M628.7,410.7c-14.1,25-31,45.1-52.1,45.1c-18.3,0-25.9-14.4-13.4-46.2l2.6-6.7c3.3-8.6,6.2-15.5,6.2-18.2
			c0-2.5-2.1-4-4.8-4c-4.2,0-12.3,4.1-19.7,12.8l-23.8,59.9h-28l37-93.3l24.3,9.5c0.9-0.9,13.9-11.9,28.9-11.9
			c11.1,0,16.9,6.1,16.9,15.6c0,4.9-1.6,11-5.3,20.3l-8.6,21.4c-8.1,20.7-4.8,23-1.8,23c7,0,19.2-12.6,31.7-34.7
			C622.6,403.9,627.3,407.3,628.7,410.7z"/>
		<path class="st1" d="M684.7,410.7c-13,23.4-31,45.1-53.2,45.1c-17.4,0-28.3-13.3-15.7-45.5l19.9-50.2h-14.6l5.8-14.4h14.4
			l8.5-21.2h28l-8.5,21.2h14.1l-5.8,14.4h-13.9l-21.7,55c-8.3,20.5-4.4,23-0.5,23c8.6,0,20.6-12.8,33.3-34.7
			C678.5,403.9,683.3,407.3,684.7,410.7z"/>
		<path class="st1" d="M674.8,403.5c7-12.2,18.5-34.5,25.2-49.6l24.3,6.3c-4.6,25.4-0.9,53.6-0.7,64.9c0,5-0.4,7.6-0.9,9.7
			c9.3-7.6,16.5-17.3,24.5-31.3c3.7,0.4,8.4,3.8,9.9,7.2c-12.9,23.6-30.1,45.1-59.7,45.1c-21.8,0-29.6-12.1-29.8-12.2l15.5-9.9
			c1.6,1.8,3,2.5,5.5,2.5c5.6,0,9.2-4.9,9.2-22.3c0-7.9-0.7-19.1-0.4-28.1c-4.6,9.2-9.2,18.5-12.7,24.8
			C681,410.3,676.3,406.9,674.8,403.5z"/>
	</g>
	<g>
		<g>
			<g>
				<path class="st0" d="M280.6,123.1V31.8h393.2v279.7h20.8V11H259.7v129.6C265.3,133.9,272.2,127.9,280.6,123.1z"/>
				<path class="st1" d="M673.7,464.2v65H280.6v-60.3h-20.8V550h434.8v-81.2C686,468.4,679.2,466.6,673.7,464.2z"/>
			</g>
			<polygon class="st2" points="259.7,413.1 259.7,414.6 260.5,412.5 			"/>
		</g>
	</g>
</g>
</svg>
